# xmcd
#
# Track frame offsets:
#  150
#  25650
#  55087
#  90186
#  118710
#  150210
#  179778
#  211278
#  242178
#  274578
#  307801
#
# Disc length: 4507 seconds
#
# Revision: 1
# Processed by: cddbd v1.5.1PL2 Copyright (c) Steve Scherf et al.
# Submitted via: Collectorz.com_Music_Collector 6.11
#
DISCID=8211990b
DTITLE=Dublee - Pseudo Harmonia
DYEAR=2006
DGENRE=Electronic
TTITLE0=Backyard
TTITLE1=Route
TTITLE2=Scar
TTITLE3=Touch (Sweetbutter Mix)
TTITLE4=Flight 822
TTITLE5=Tilt
TTITLE6=Cliff
TTITLE7=Bounce
TTITLE8=Tie
TTITLE9=A Half Decades
TTITLE10=Cliff (Thomas Fehlmann Remix)
EXTD=
EXTT0=
EXTT1=
EXTT2=
EXTT3=
EXTT4=
EXTT5=
EXTT6=
EXTT7=
EXTT8=
EXTT9=
EXTT10=
PLAYORDER=
